<svg width="176" height="18" viewBox="0 0 176 18" fill="none" xmlns="http://www.w3.org/2000/svg">
<g clip-path="url(#clip0_1_983)">
<path d="M41.9667 16.949V1.51049H47.6265C48.6491 1.49645 49.6643 1.68575 50.6132 2.06737C51.562 2.449 52.4256 3.01536 53.1537 3.73356C53.8818 4.45175 54.46 5.30746 54.8546 6.25098C55.2492 7.1945 55.4524 8.20703 55.4524 9.22975C55.4524 10.2525 55.2492 11.265 54.8546 12.2085C54.46 13.152 53.8818 14.0078 53.1537 14.726C52.4256 15.4441 51.562 16.0105 50.6132 16.3921C49.6643 16.7738 48.6491 16.9631 47.6265 16.949H41.9667ZM47.6265 13.8616C48.2416 13.8725 48.8528 13.7608 49.4243 13.5329C49.9959 13.305 50.5162 12.9656 50.9551 12.5344C51.394 12.1032 51.7426 11.5889 51.9806 11.0215C52.2186 10.4541 52.3411 9.84502 52.3411 9.22975C52.3411 8.61449 52.2186 8.00538 51.9806 7.438C51.7426 6.87062 51.394 6.35632 50.9551 5.92513C50.5162 5.49394 49.9959 5.1545 49.4243 4.92663C48.8528 4.69875 48.2416 4.587 47.6265 4.59791H45.0541V13.8616H47.6265Z" fill="black"/>
<path d="M68.5429 16.9493C67.0157 16.9493 65.5227 16.4963 64.253 15.6476C62.9833 14.7989 61.9938 13.5927 61.4097 12.1816C60.8257 10.7704 60.6733 9.21773 60.9719 7.71996C61.2705 6.22219 62.0066 4.84664 63.0871 3.76733C64.1677 2.68801 65.5441 1.95345 67.0422 1.65656C68.5403 1.35966 70.0928 1.51379 71.5033 2.09944C72.9137 2.68508 74.1188 3.67593 74.9661 4.94663C75.8133 6.21732 76.2646 7.71076 76.2629 9.238C76.2602 11.2838 75.4457 13.245 73.9982 14.6908C72.5508 16.1366 70.5887 16.9489 68.5429 16.9493ZM63.9118 9.238C63.9138 10.1539 64.1872 11.0486 64.6976 11.8091C65.2079 12.5696 65.9322 13.1618 66.7789 13.5108C67.6257 13.8598 68.5569 13.95 69.4549 13.77C70.3529 13.59 71.1774 13.1479 71.8242 12.4994C72.471 11.851 72.9111 11.0254 73.0888 10.127C73.2666 9.2285 73.174 8.29752 72.8229 7.45165C72.4717 6.60578 71.8777 5.88297 71.1159 5.37456C70.3542 4.86615 69.4588 4.59495 68.5429 4.59524C67.3145 4.59717 66.137 5.0863 65.2688 5.95533C64.4006 6.82436 63.9125 8.00231 63.9118 9.23072V9.238Z" fill="black"/>
<path d="M84.3539 1.51074H85.1366L90.7149 7.54153L96.2729 1.51074H97.076L98.2487 16.9493H95.1613L94.4818 8.01584L90.7149 12.0897L86.9481 8.01584L86.2482 16.9493H83.1594L84.3539 1.51074Z" fill="black"/>
<path d="M117.971 14.377H110.025L108.625 16.9494H105.106L113.999 0.666992L122.912 16.9494H119.392L117.971 14.377ZM116.283 11.2882L113.999 7.08916L111.713 11.2882H116.283Z" fill="black"/>
<path d="M133.453 16.9493H130.364V1.51074H133.451L133.453 16.9493Z" fill="black"/>
<path d="M142.2 1.51074H143.022L152.491 10.5315V1.51074H155.578V16.9493H154.734L145.286 7.92855V16.9493H142.2V1.51074Z" fill="black"/>
<path d="M164.678 1.51074H176V4.59525H167.765V9.23073H173.941V12.3181H167.765V13.8618H176V16.9493H164.678V1.51074Z" fill="black"/>
<path d="M14.324 1.46826H13.3434L7.77528 7.50487L2.18243 1.46826H1.22653L0 17.3331H3.37258L4.07387 8.46514L7.77528 12.4779L11.484 8.46514L12.1576 17.3404H15.5302L14.324 1.46826ZM1.00537 16.4034L2.06458 2.70352L7.77673 8.88125L13.4845 2.68751L14.5263 16.4034H13.0204L12.2493 6.2667L7.77528 11.1073L3.30566 6.27107L2.51125 16.4034H1.00537Z" fill="black"/>
<path d="M32.591 1.46826L28.5011 7.98064L24.4272 1.46826H20.4479L26.8163 11.6428V17.3331H30.1874V11.6428L36.5761 1.46826H32.591ZM29.2577 11.375V16.4034H27.746V11.3765L22.1284 2.39798H23.9122L28.4997 9.73095L33.1104 2.39798H34.8942L29.2577 11.375Z" fill="black"/>
</g>
<defs>
<clipPath id="clip0_1_983">
<rect width="176" height="18" fill="white"/>
</clipPath>
</defs>
</svg>
